<svg width="15" height="15" viewBox="0 0 15 15" fill="none" xmlns="http://www.w3.org/2000/svg">
<path d="M13.025 2.88125C12.7057 2.56187 12.3267 2.30853 11.9096 2.13567C11.4924 1.96282 11.0453 1.87386 10.5937 1.87386C10.1422 1.87386 9.69502 1.96282 9.27786 2.13567C8.8607 2.30853 8.48168 2.56187 8.16245 2.88125L7.49995 3.54375L6.83745 2.88125C6.19265 2.23644 5.3181 1.87419 4.4062 1.87419C3.49431 1.87419 2.61976 2.23644 1.97495 2.88125C1.33014 3.52605 0.967896 4.4006 0.967896 5.3125C0.967896 6.22439 1.33014 7.09894 1.97495 7.74375L2.63745 8.40625L7.49995 13.2687L12.3625 8.40625L13.025 7.74375C13.3443 7.42452 13.5977 7.04551 13.7705 6.62834C13.9434 6.21118 14.0323 5.76405 14.0323 5.3125C14.0323 4.86094 13.9434 4.41381 13.7705 3.99665C13.5977 3.57949 13.3443 3.20047 13.025 2.88125V2.88125Z" stroke="white" stroke-linecap="round" stroke-linejoin="round"/>
</svg>
