<svg width="24" height="24" viewBox="0 0 24 24" fill="none" xmlns="http://www.w3.org/2000/svg">
<path d="M10.3506 1.80029L9.14941 2.69971L10.5 4.5H9C6.10925 4.5 3.75 6.85925 3.75 9.75V15.75C3.75 18.6408 6.10925 21 9 21H15C17.8908 21 20.25 18.6408 20.25 15.75V9.75C20.25 6.85925 17.8908 4.5 15 4.5H13.5L14.8506 2.69971L13.6494 1.80029L12 3.99902L10.3506 1.80029ZM9 6H11.978H15C17.0802 6 18.75 7.66975 18.75 9.75V15.75C18.75 17.8302 17.0802 19.5 15 19.5H9C6.91975 19.5 5.25 17.8302 5.25 15.75V9.75C5.25 7.66975 6.91975 6 9 6ZM12.75 10.2554L6.54346 12.0293L6.95654 13.4707L11.25 12.2446V15.2446L17.4565 13.4707L17.0435 12.0293L12.75 13.2554V10.2554Z" fill="white"/>
</svg>
