<svg width="60" height="60" viewBox="0 0 60 60" fill="none" xmlns="http://www.w3.org/2000/svg">
<path fill-rule="evenodd" clip-rule="evenodd" d="M16.4695 15.8069C13.9553 18.423 12.2651 21.4213 11.3987 24.8018C10.5323 28.1823 10.6003 31.6138 11.6025 35.0963C12.6048 38.5787 14.3885 41.5176 16.9536 43.9128C19.5187 46.3081 22.5595 47.9049 26.0759 48.7033C29.5924 49.5017 33.0238 49.3573 36.3704 48.2701C39.7169 47.1829 42.5963 45.2973 45.0085 42.6133C41.0674 43.5646 37.2028 43.5136 33.4146 42.4604C29.6263 41.4071 26.2968 39.4451 23.4259 36.5742C20.555 33.7033 18.5929 30.3737 17.5397 26.5855C16.4865 22.7973 16.4355 18.9326 17.3868 14.9915L16.4695 15.8069ZM25.7447 34.2554C29.5499 37.9247 33.9497 39.8358 38.944 39.9887C43.9383 40.1416 48.457 38.5193 52.5001 35.1217C51.0391 40.6597 48.1003 45.017 43.6835 48.1937C39.2668 51.3703 34.2045 52.7718 28.4967 52.3981C22.7888 51.8545 18.0153 49.6631 14.1762 45.8239C10.337 41.9847 8.14558 37.2112 7.60198 31.5034C7.22825 25.7956 8.62972 20.7333 11.8064 16.3165C14.9831 11.8998 19.3404 8.96093 24.8783 7.5C21.4808 11.543 19.8585 16.0617 20.0114 21.0561C20.1643 26.0504 22.0754 30.4502 25.7447 34.2554Z" fill="black"/>
</svg>
