<svg width="60" height="60" viewBox="0 0 60 60" fill="none" xmlns="http://www.w3.org/2000/svg">
<path fill-rule="evenodd" clip-rule="evenodd" d="M30 7.5C30.4688 7.5 30.8538 7.65067 31.1552 7.95201C31.4565 8.25335 31.6072 8.63839 31.6072 9.10714V12.3214C31.6072 12.7902 31.4565 13.1752 31.1552 13.4766C30.8538 13.7779 30.4688 13.9286 30 13.9286C29.5313 13.9286 29.1462 13.7779 28.8449 13.4766C28.5435 13.1752 28.3929 12.7902 28.3929 12.3214V9.10714C28.3929 8.63839 28.5435 8.25335 28.8449 7.95201C29.1462 7.65067 29.5313 7.5 30 7.5ZM20.9096 39.0904C23.3203 41.5011 26.3505 42.7567 30 42.8571C33.6496 42.7567 36.6797 41.5011 39.0904 39.0904C41.5011 36.6797 42.7567 33.6495 42.8572 30C42.7567 26.3504 41.5011 23.3203 39.0904 20.9096C36.6797 18.4989 33.6496 17.2433 30 17.1428C26.3505 17.2433 23.3203 18.4989 20.9096 20.9096C18.4989 23.3203 17.2433 26.3504 17.1429 30C17.2433 33.6495 18.4989 36.6797 20.9096 39.0904ZM36.8303 36.8304C35.0223 38.6384 32.7455 39.5759 30 39.6429C27.2544 39.5759 24.9777 38.6384 23.1696 36.8304C21.3616 35.0224 20.4241 32.7456 20.3571 30C20.4241 27.2545 21.3616 24.9777 23.1696 23.1697C24.9777 21.3616 27.2544 20.4241 30 20.3572C32.7455 20.4241 35.0223 21.3616 36.8303 23.1697C38.6384 24.9777 39.5759 27.2545 39.6428 30C39.5759 32.7456 38.6384 35.0224 36.8303 36.8304ZM31.1552 46.5234C30.8538 46.2221 30.4688 46.0714 30 46.0714C29.5313 46.0714 29.1462 46.2221 28.8449 46.5234C28.5435 46.8248 28.3929 47.2098 28.3929 47.6786V50.8928C28.3929 51.3616 28.5435 51.7466 28.8449 52.048C29.1462 52.3493 29.5313 52.5 30 52.5C30.4688 52.5 30.8538 52.3493 31.1552 52.048C31.4565 51.7466 31.6072 51.3616 31.6072 50.8928V47.6786C31.6072 47.2098 31.4565 46.8248 31.1552 46.5234ZM14.0793 14.0792C14.4141 13.7779 14.7991 13.6272 15.2344 13.6272C15.6697 13.6272 16.038 13.7779 16.3393 14.0792L18.6496 16.3393C19.0514 16.808 19.1769 17.3353 19.0263 17.9213C18.8756 18.5072 18.5073 18.8755 17.9213 19.0262C17.3354 19.1769 16.8081 19.0513 16.3393 18.6495L14.0793 16.3393C13.7779 16.0379 13.6273 15.6696 13.6273 15.2343C13.6273 14.7991 13.7779 14.414 14.0793 14.0792ZM42.5056 40.8984C42.0703 40.8984 41.6853 41.0491 41.3504 41.3504C41.0491 41.6853 40.8984 42.0703 40.8984 42.5056C40.8984 42.9408 41.0491 43.3259 41.3504 43.6607L43.6607 45.9208C43.9621 46.2221 44.3304 46.3728 44.7656 46.3728C45.2009 46.3728 45.5776 46.2137 45.8956 45.8956C46.2137 45.5776 46.3728 45.2009 46.3728 44.7656C46.3728 44.3304 46.2221 43.9621 45.9208 43.6607L43.6607 41.3504C43.3259 41.0491 42.9408 40.8984 42.5056 40.8984ZM7.5 30C7.5 29.5312 7.65067 29.1462 7.95201 28.8448C8.25335 28.5435 8.63839 28.3928 9.10714 28.3928H12.3214C12.7902 28.3928 13.1752 28.5435 13.4766 28.8448C13.7779 29.1462 13.9286 29.5312 13.9286 30C13.9286 30.4687 13.7779 30.8538 13.4766 31.1551C13.1752 31.4564 12.7902 31.6071 12.3214 31.6071H9.10714C8.63839 31.6071 8.25335 31.4564 7.95201 31.1551C7.65067 30.8538 7.5 30.4687 7.5 30ZM46.5234 28.8448C46.2221 29.1462 46.0714 29.5312 46.0714 30C46.0714 30.4687 46.2221 30.8538 46.5234 31.1551C46.8248 31.4564 47.2098 31.6071 47.6786 31.6071H50.8928C51.3616 31.6071 51.7466 31.4564 52.048 31.1551C52.3493 30.8538 52.5 30.4687 52.5 30C52.5 29.5312 52.3493 29.1462 52.048 28.8448C51.7466 28.5435 51.3616 28.3928 50.8928 28.3928H47.6786C47.2098 28.3928 46.8248 28.5435 46.5234 28.8448ZM14.0793 45.9208C13.7779 45.5859 13.6273 45.2009 13.6273 44.7656C13.6273 44.3304 13.7779 43.9621 14.0793 43.6607L16.3393 41.3504C16.6741 41.0491 17.0592 40.8984 17.4944 40.8984C17.9297 40.8984 18.3064 41.0575 18.6245 41.3756C18.9425 41.6936 19.1016 42.0703 19.1016 42.5056C19.1016 42.9408 18.9509 43.3259 18.6496 43.6607L16.3393 45.9208C16.038 46.2221 15.6697 46.3728 15.2344 46.3728C14.7991 46.3728 14.4141 46.2221 14.0793 45.9208ZM40.8984 17.4944C40.8984 17.9297 41.0491 18.3147 41.3504 18.6495C41.6853 18.9509 42.0703 19.1015 42.5056 19.1015C42.9408 19.1015 43.3259 18.9509 43.6607 18.6495L45.9208 16.3393C46.2221 16.0379 46.3728 15.6696 46.3728 15.2343C46.3728 14.7991 46.2137 14.4224 45.8956 14.1043C45.5776 13.7862 45.2009 13.6272 44.7656 13.6272C44.3304 13.6272 43.9621 13.7779 43.6607 14.0792L41.3504 16.3393C41.0491 16.6741 40.8984 17.0591 40.8984 17.4944Z" fill="white"/>
</svg>
